<svg xmlns="http://www.w3.org/2000/svg" viewBox="0 0 129 160"><g id="Слой_2" data-name="Слой 2"><g id="Слой_1-2" data-name="Слой 1"><path d="M.7,27.7C.3,43,0,79,0,107.7V160H56.3c30.9,0,58-.5,60.2-1,2.8-.6,5.2-2.2,8.3-5.5l4.2-4.7-.2-74.2L128.5.5,64.9.2,1.3,0Zm66.3-6c0,9.8.5,18.5,1,19.3,1,1.6,1.5,1.2,12.2-8.9L85,27.6,91.8,35c10,10.8,10.2,10.6,10.2-12.5V4h23.1l-.3,72.2c-.2,39.8-.7,73.1-1.2,74.1s-2.6,2.7-4.7,3.7c-3.7,1.9-6.2,2-59.4,2H4V4H67Zm31-2.1V35.2l-6.8-6-6.8-6-6.3,6.1c-7.9,7.6-7.9,7.6-8-11.6L70,4H98Z"/><path d="M63.4,64.5A2.67,2.67,0,0,1,61.3,66c-5.9,0-11.1,7.3-9.2,12.9,1.4,4,4.7,5.7,12.6,6.6,7.4.8,9.6,2.2,9.6,6,0,4.4-3.4,6.5-10.3,6.5s-12,.9-12,2.1c0,.5,2,.9,4.5.9,3.3,0,5,.6,6.5,2.2l2,2.2,1.6-2.2a5.42,5.42,0,0,1,3.9-2.2c1.4,0,3.4-1.2,4.9-3.1,3.3-3.9,3.4-8.8.3-12.5-2-2.2-3.4-2.8-8.3-3.1-10-.7-13.5-3.2-11.9-8.2.8-2.6,3.2-3.3,13.4-4,11.1-.8,12.1-4,1.3-4.1-2,0-3.5-.6-3.8-1.5s-1-1.5-1.5-1.5S63.7,63.7,63.4,64.5Z"/><path d="M24.6,122.9c-.3.5,4.8,1.2,11.4,1.6,14.3.9,66.4-.4,63.5-1.6S25.2,121.8,24.6,122.9Z"/><path d="M24.5,138.1a1.35,1.35,0,0,0,0,1.7c1,1,73.6.9,76-.1,5.1-2.1-3.1-2.7-38.2-2.7C37,137,24.9,137.3,24.5,138.1Z"/></g></g></svg>